<?xml version="1.0" encoding="UTF-8"?>
<svg width="232px" height="146px" viewBox="0 0 232 146" version="1.1" xmlns="http://www.w3.org/2000/svg" xmlns:xlink="http://www.w3.org/1999/xlink">
    <!-- Generator: Sketch 42 (36781) - http://www.bohemiancoding.com/sketch -->
    <title>Group 3</title>
    <desc>Created with Sketch.</desc>
    <defs>
        <polygon id="path-1" points="0 158.994643 281.882368 158.994643 281.882368 0.928571429 0 0.928571429"></polygon>
    </defs>
    <g id="Symbols" stroke="none" stroke-width="1" fill="none" fill-rule="evenodd">
        <g id="404" transform="translate(-43.000000, -13.000000)">
            <g id="Group-3">
                <g id="Page-1">
                    <path d="M161.983245,27.6126071 L163.002718,22.4268929 C163.477166,18.7418929 166.84535,16.1451071 170.523297,16.6204643 L248.27385,26.7365357 C251.951797,27.2118929 254.543613,30.5865357 254.065245,34.2715357 L239.835745,144.09475 L151.674797,117.042607 L161.983245,27.6126071 Z" id="Fill-10" fill="#FFFFFF"></path>
                    <path d="M242.751047,144.473464 L236.920442,143.71525 L251.149942,33.8920357 C251.416574,31.8256071 249.954021,29.9281071 247.891547,29.6570357 L170.144916,19.5448929 C169.148968,19.4034643 168.153021,19.6784643 167.357047,20.2991786 C166.557153,20.9159643 166.047416,21.8038214 165.918021,22.8056071 L164.867179,28.1798929 L159.095389,27.0445357 L160.114863,21.8588214 C160.416784,19.4859643 161.722495,17.2073929 163.765363,15.6281071 C165.812153,14.05275 168.352995,13.3731071 170.901679,13.6991786 L248.652232,23.8113214 C253.929968,24.50275 257.666732,29.3623929 256.980547,34.65025 L242.751047,144.473464 Z" id="Fill-12" fill="#63B7E6"></path>
                    <path d="M270.263897,156.049 L262.751161,156.049 C262.186529,156.049 261.727766,155.589357 261.727766,155.023643 L261.727766,46.6029286 C261.727766,46.4536429 261.759134,46.3082857 261.821871,46.1707857 L265.578239,38.019 C265.942897,37.2215 267.072161,37.2215 267.436818,38.019 L271.193187,46.1707857 C271.255924,46.3082857 271.287292,46.4536429 271.287292,46.6029286 L271.287292,155.023643 C271.287292,155.589357 270.828529,156.049 270.263897,156.049" id="Fill-14" fill="#FFFFFF"></path>
                    <mask id="mask-2" fill="white">
                        <use xlink:href="#path-1"></use>
                    </mask>
                    <g id="Clip-17"></g>
                    <polygon id="Fill-16" fill="#63B7E6" mask="url(#mask-2)" points="261.728158 145.672857 271.291605 145.672857 271.291605 50.0632143 261.728158 50.0632143"></polygon>
                    <path d="M264.667379,153.101786 L268.345326,153.101786 L268.345326,47.0264286 L266.506353,43.0310714 L264.667379,47.0264286 L264.667379,153.101786 Z M274.226905,158.994643 L258.7858,158.994643 L258.7858,45.73 L263.283247,35.9675 C264.4478,33.4532143 268.568826,33.4610714 269.733379,35.9635714 L274.226905,45.73 L274.226905,158.994643 Z" id="Fill-18" fill="#0F5988" mask="url(#mask-2)"></path>
                    <polygon id="Fill-19" fill="#0F5988" mask="url(#mask-2)" points="261.398789 53.0057143 271.287684 53.0057143 271.287684 47.1128571 261.398789 47.1128571"></polygon>
                    <path d="M143.264614,156.049 C138.897538,156.049 135.354517,152.725429 135.354517,148.620071 L135.354517,39.2800714 C135.354517,35.1786429 138.897538,31.8550714 143.264614,31.8550714 L225.410819,31.8550714 C229.777895,31.8550714 233.320916,35.1786429 233.320916,39.2800714 L233.320916,148.620071 C233.320916,152.725429 229.777895,156.049 225.410819,156.049 L143.264614,156.049 Z" id="Fill-20" fill="#D2E9F8" mask="url(#mask-2)"></path>
                    <path d="M144.671268,34.7995357 C142.085418,34.7995357 139.980562,36.8109643 139.980562,39.2820357 L139.980562,148.622036 C139.980562,151.093107 142.085418,153.100607 144.671268,153.100607 L225.404035,153.100607 C227.989884,153.100607 230.094741,151.093107 230.094741,148.622036 L230.094741,39.2820357 C230.094741,36.8109643 227.989884,34.7995357 225.404035,34.7995357 L144.671268,34.7995357 Z M225.404035,158.993464 L144.671268,158.993464 C138.685581,158.993464 133.813989,154.342036 133.813989,148.622036 L133.813989,39.2820357 C133.813989,33.5620357 138.685581,28.9066786 144.671268,28.9066786 L225.404035,28.9066786 C231.389721,28.9066786 236.261313,33.5620357 236.261313,39.2820357 L236.261313,148.622036 C236.261313,154.342036 231.389721,158.993464 225.404035,158.993464 L225.404035,158.993464 Z" id="Fill-21" fill="#63B7E6" mask="url(#mask-2)"></path>
                    <path d="M130.416342,155.193929 L53.4147105,155.193929 C49.3211316,155.193929 46,151.870357 46,147.765 L46,38.425 C46,34.3235714 49.3211316,31 53.4147105,31 L130.416342,31 C134.509921,31 137.831053,34.3235714 137.831053,38.425 L137.831053,147.765 C137.831053,151.870357 134.509921,155.193929 130.416342,155.193929" id="Fill-20" fill="#D2E9F8" mask="url(#mask-2)"></path>
                    <path d="M53.2758955,34.8475577 C50.8285126,34.8475577 48.8363662,36.8435241 48.8363662,39.2955999 L48.8363662,147.795084 C48.8363662,150.24716 50.8285126,152.239228 53.2758955,152.239228 L129.685602,152.239228 C132.132985,152.239228 134.125131,150.24716 134.125131,147.795084 L134.125131,39.2955999 C134.125131,36.8435241 132.132985,34.8475577 129.685602,34.8475577 L53.2758955,34.8475577 Z M129.685602,158.086786 L53.2758955,158.086786 C47.6107293,158.086786 43,153.471113 43,147.795084 L43,39.2955999 C43,33.6195706 47.6107293,29 53.2758955,29 L129.685602,29 C135.350768,29 139.961497,33.6195706 139.961497,39.2955999 L139.961497,147.795084 C139.961497,153.471113 135.350768,158.086786 129.685602,158.086786 L129.685602,158.086786 Z" id="Fill-21" fill="#63B7E6" mask="url(#mask-2)"></path>
                    <polygon id="Fill-22" fill="#63B7E6" mask="url(#mask-2)" points="125.909098 47.9339286 149.982079 47.9339286 149.982079 42.0410714 125.909098 42.0410714"></polygon>
                    <polygon id="Fill-23" fill="#63B7E6" mask="url(#mask-2)" points="125.909098 59.9435714 149.982079 59.9435714 149.982079 54.0507143 125.909098 54.0507143"></polygon>
                    <polygon id="Fill-24" fill="#63B7E6" mask="url(#mask-2)" points="125.909098 71.9571429 149.982079 71.9571429 149.982079 66.0642857 125.909098 66.0642857"></polygon>
                    <polygon id="Fill-25" fill="#63B7E6" mask="url(#mask-2)" points="125.909098 83.9628571 149.982079 83.9628571 149.982079 78.07 125.909098 78.07"></polygon>
                    <polygon id="Fill-26" fill="#63B7E6" mask="url(#mask-2)" points="125.909098 95.9725 149.982079 95.9725 149.982079 90.0796429 125.909098 90.0796429"></polygon>
                    <polygon id="Fill-27" fill="#63B7E6" mask="url(#mask-2)" points="125.909098 107.982143 149.982079 107.982143 149.982079 102.089286 125.909098 102.089286"></polygon>
                    <polygon id="Fill-28" fill="#63B7E6" mask="url(#mask-2)" points="125.909098 121.064286 149.315083 121.064286 149.315083 115.171429 125.909098 115.171429"></polygon>
                    <polygon id="Fill-29" fill="#63B7E6" mask="url(#mask-2)" points="125.909098 132.74 149.315083 132.74 149.315083 126.847143 125.909098 126.847143"></polygon>
                    <polygon id="Fill-30" fill="#63B7E6" mask="url(#mask-2)" points="126 144.892857 149.405985 144.892857 149.405985 139 126 139"></polygon>
                    <polygon id="Fill-30-Copy" fill="#0F5988" mask="url(#mask-2)" points="153 143 217 143 217 141 153 141"></polygon>
                    <polygon id="Fill-30-Copy-2" fill="#0F5988" mask="url(#mask-2)" points="154 129 218 129 218 127 154 127"></polygon>
                    <polygon id="Fill-30-Copy-4" fill="#0F5988" mask="url(#mask-2)" points="153 72 181 72 181 70 153 70"></polygon>
                    <polygon id="Fill-30-Copy-5" fill="#0F5988" mask="url(#mask-2)" points="153 103 181 103 181 101 153 101"></polygon>
                    <polygon id="Fill-30-Copy-6" fill="#0F5988" mask="url(#mask-2)" points="153 86 181 86 181 84 153 84"></polygon>
                    <polygon id="Fill-30-Copy-3" fill="#0F5988" mask="url(#mask-2)" points="154 116.171429 218 116.171429 218 114.171429 154 114.171429"></polygon>
                    <g id="Group" mask="url(#mask-2)">
                        <g transform="translate(69.000000, 61.000000)">
                            <path d="M43.0770789,20.0789286 C43.0770789,31.1692857 34.1057105,40.1578571 23.0365789,40.1578571 C11.9713684,40.1578571 3,31.1692857 3,20.0789286 C3,8.9925 11.9713684,0 23.0365789,0 C34.1057105,0 43.0770789,8.9925 43.0770789,20.0789286" id="Fill-31" fill="#FFFFFF"></path>
                            <path d="M22.9773684,5.89285714 C13.5511579,5.89285714 5.88157895,13.5771429 5.88157895,23.0253571 C5.88157895,32.4735714 13.5511579,40.1578571 22.9773684,40.1578571 C32.4075,40.1578571 40.0770789,32.4735714 40.0770789,23.0253571 C40.0770789,13.5771429 32.4075,5.89285714 22.9773684,5.89285714 M22.9773684,46.0507143 C10.3045263,46.0507143 3.55271368e-15,35.7225 3.55271368e-15,23.0253571 C3.55271368e-15,10.3282143 10.3045263,0 22.9773684,0 C35.6462895,0 45.9586579,10.3282143 45.9586579,23.0253571 C45.9586579,35.7225 35.6462895,46.0507143 22.9773684,46.0507143" id="Fill-32-Copy" fill="#0F5988"></path>
                        </g>
                    </g>
                </g>
                <g id="Group-2" transform="translate(223.426915, 96.858639) rotate(-30.000000) translate(-223.426915, -96.858639) translate(187.426915, 32.358639)">
                    <polygon id="Fill-23" fill="#0F5988" points="34 86 38.7374674 86 38.7374674 70 34 70"></polygon>
                    <path d="M30,128.170478 L30,80 L42,80 L42,128.170478 L30,128.170478 Z M33.375,121.074584 L38.625,121.074584 L38.625,87.0958941 L33.375,87.0958941 L33.375,121.074584 Z" id="Combined-Shape" fill="#0F5988"></path>
                    <path d="M35.7871443,61.2308064 C21.7642409,61.2308064 10.3974775,49.8540106 10.3974775,35.8187305 C10.3974775,21.7834503 21.7642409,10.4066545 35.7871443,10.4066545 C49.8100477,10.4066545 61.176811,21.7834503 61.176811,35.8187305 C61.176811,49.8540106 49.8100477,61.2308064 35.7871443,61.2308064 M35.7871443,2.37114046 C17.3299714,2.37114046 2.36904951,17.3452671 2.36904951,35.8187305 C2.36904951,54.2921938 17.3299714,69.2694816 35.7871443,69.2694816 C54.2443171,69.2694816 69.205239,54.2921938 69.205239,35.8187305 C69.205239,17.3452671 54.2443171,2.37114046 35.7871443,2.37114046" id="Fill-25" fill="#9ECFEF"></path>
                    <path d="M35.7868284,4.74164871 C18.6656214,4.74164871 4.73746736,18.6820959 4.73746736,35.8184144 C4.73746736,52.9578939 18.6656214,66.8983411 35.7868284,66.8983411 C52.9080355,66.8983411 66.8361895,52.9578939 66.8361895,35.8184144 C66.8361895,18.6820959 52.9080355,4.74164871 35.7868284,4.74164871 M35.7868284,71.6399898 C16.0536977,71.6399898 7.10542736e-15,55.5689618 7.10542736e-15,35.8184144 C7.10542736e-15,16.0678669 16.0536977,-2.84217094e-14 35.7868284,-2.84217094e-14 C55.5199592,-2.84217094e-14 71.5736569,16.0678669 71.5736569,35.8184144 C71.5736569,55.5689618 55.5199592,71.6399898 35.7868284,71.6399898" id="Fill-26" fill="#0F5988"></path>
                </g>
                <path d="M193.865774,81.184 L186.557774,81.184 L186.557774,77.728 L191.849774,59.368 L195.737774,59.368 L190.229774,77.728 L193.865774,77.728 L193.865774,70.42 L197.537774,70.42 L197.537774,77.728 L199.301774,77.728 L199.301774,81.184 L197.537774,81.184 L197.537774,85 L193.865774,85 L193.865774,81.184 Z M202.635258,64.66 C202.635258,63.7959957 202.785257,63.0280034 203.085258,62.356 C203.38526,61.6839966 203.787256,61.1080024 204.291258,60.628 C204.795261,60.1479976 205.377255,59.7820013 206.037258,59.53 C206.697261,59.2779987 207.387254,59.152 208.107258,59.152 C208.827262,59.152 209.517255,59.2779987 210.177258,59.53 C210.837261,59.7820013 211.419256,60.1479976 211.923258,60.628 C212.427261,61.1080024 212.829257,61.6839966 213.129258,62.356 C213.42926,63.0280034 213.579258,63.7959957 213.579258,64.66 L213.579258,79.708 C213.579258,80.5720043 213.42926,81.3399966 213.129258,82.012 C212.829257,82.6840034 212.427261,83.2599976 211.923258,83.74 C211.419256,84.2200024 210.837261,84.5859987 210.177258,84.838 C209.517255,85.0900013 208.827262,85.216 208.107258,85.216 C207.387254,85.216 206.697261,85.0900013 206.037258,84.838 C205.377255,84.5859987 204.795261,84.2200024 204.291258,83.74 C203.787256,83.2599976 203.38526,82.6840034 203.085258,82.012 C202.785257,81.3399966 202.635258,80.5720043 202.635258,79.708 L202.635258,64.66 Z M206.307258,79.708 C206.307258,80.2360026 206.475256,80.6739983 206.811258,81.022 C207.14726,81.3700017 207.579255,81.544 208.107258,81.544 C208.635261,81.544 209.067256,81.3700017 209.403258,81.022 C209.73926,80.6739983 209.907258,80.2360026 209.907258,79.708 L209.907258,64.66 C209.907258,64.1319974 209.73926,63.6940017 209.403258,63.346 C209.067256,62.9979983 208.635261,62.824 208.107258,62.824 C207.579255,62.824 207.14726,62.9979983 206.811258,63.346 C206.475256,63.6940017 206.307258,64.1319974 206.307258,64.66 L206.307258,79.708 Z M224.220742,81.184 L216.912742,81.184 L216.912742,77.728 L222.204742,59.368 L226.092742,59.368 L220.584742,77.728 L224.220742,77.728 L224.220742,70.42 L227.892742,70.42 L227.892742,77.728 L229.656742,77.728 L229.656742,81.184 L227.892742,81.184 L227.892742,85 L224.220742,85 L224.220742,81.184 Z" id="404" fill="#0F5988"></path>
            </g>
        </g>
    </g>
</svg>