<?xml version="1.0" encoding="UTF-8"?>
<svg width="400px" height="274px" viewBox="0 0 400 274" version="1.1" xmlns="http://www.w3.org/2000/svg" xmlns:xlink="http://www.w3.org/1999/xlink">
    <!-- Generator: Sketch 42 (36781) - http://www.bohemiancoding.com/sketch -->
    <title>500</title>
    <desc>Created with Sketch.</desc>
    <defs></defs>
    <g id="ICONS" stroke="none" stroke-width="1" fill="none" fill-rule="evenodd">
        <g id="500" transform="translate(-56.000000, -111.000000)">
            <g transform="translate(56.000000, 111.000000)">
                <path d="M195.936925,216.373268 L22,216.373268 L22,123.201854 C22,117.565756 26.569525,113 32.210275,113 L185.721475,113 C191.362225,113 195.936925,117.565756 195.936925,123.201854 L195.936925,216.373268 Z" id="Fill-17" stroke="#979797" stroke-width="1" fill="#0F5988" fill-rule="evenodd"></path>
                <rect id="Rectangle" fill="#9ECFEF" fill-rule="evenodd" x="86" y="235" width="47" height="14"></rect>
                <path d="M195.936925,216.373268 L22,216.373268 L22,123.201854 C22,117.565756 26.569525,113 32.210275,113 L185.721475,113 C191.362225,113 195.936925,117.565756 195.936925,123.201854 L195.936925,216.373268 Z" id="Fill-17" stroke="#979797" stroke-width="1" fill="#0F5988" fill-rule="evenodd"></path>
                <polygon id="Fill-20" fill="#FFFFFF" fill-rule="evenodd" points="31 205.645854 186.255175 205.645854 186.255175 124 31 124"></polygon>
                <path d="M199.699425,221.129366 L18,221.129366 L18,122.280488 C18,115.506829 23.511375,110 30.290625,110 L45.587925,110 L45.587925,117.756098 L30.290625,117.756098 C27.7911,117.756098 25.7625,119.783024 25.7625,122.280488 L25.7625,213.373268 L191.936925,213.373268 L191.936925,122.280488 C191.936925,119.783024 189.90315,117.756098 187.4088,117.756098 L72.901575,117.756098 L72.901575,110 L187.4088,110 C194.18805,110 199.699425,115.506829 199.699425,122.280488 L199.699425,221.129366 Z" id="Fill-18" fill="#63B7E6" fill-rule="evenodd"></path>
                <polygon id="Fill-19" fill="#D5D5D5" fill-rule="evenodd" points="50 117.756098 64.070825 117.756098 64.070825 110 50 110"></polygon>
                <path d="M86.7625,259.998537 L131.407225,259.998537 L131.407225,236.756098 L86.7625,236.756098 L86.7625,259.998537 Z M79,267.754634 L139.169725,267.754634 L139.169725,229 L79,229 L79,267.754634 Z" id="Fill-23" fill="#0F5988" fill-rule="evenodd"></path>
                <path d="M196.936925,213 L23,213 L23,226.128488 C23,231.842146 27.631625,236.469951 33.344825,236.469951 L186.586925,236.469951 C192.3053,236.469951 196.936925,231.842146 196.936925,226.128488 L196.936925,213 Z" id="Fill-24" fill="#FFFFFF" fill-rule="evenodd"></path>
                <path d="M25.7625,216.756098 L25.7625,226.011707 C25.7625,229.574341 28.665675,232.469951 32.23125,232.469951 L185.468175,232.469951 C189.038925,232.469951 191.936925,229.574341 191.936925,226.011707 L191.936925,216.756098 L25.7625,216.756098 Z M185.468175,240.226049 L32.23125,240.226049 C24.380775,240.226049 18,233.850537 18,226.011707 L18,209 L199.699425,209 L199.699425,226.011707 C199.699425,233.850537 193.31865,240.226049 185.468175,240.226049 L185.468175,240.226049 Z" id="Fill-25" fill="#63B7E6" fill-rule="evenodd"></path>
                <polygon id="Fill-26" fill="#63B7E6" fill-rule="evenodd" points="73 267.756098 146.4643 267.756098 146.4643 260 73 260"></polygon>
                <polygon id="Fill-26-Copy" fill="#63B7E6" fill-rule="evenodd" points="0 274 400 274 400 268 0 268"></polygon>
                <rect id="Rectangle-5-Copy-6" fill="#9ECFEF" fill-rule="evenodd" transform="translate(216.000000, 53.000000) rotate(90.000000) translate(-216.000000, -53.000000) " x="215" y="48" width="2" height="10" rx="1"></rect>
                <text id="MAYDAY！" font-family="DINCondensed-Bold, DIN Condensed" font-size="32" font-weight="bold" fill="#0F5988">
                    <tspan x="87.348" y="167">MAYDAY</tspan>
                    <tspan x="169.652" y="167" font-family="PingFangSC-Semibold, PingFang SC" font-weight="500">！</tspan>
                </text>
                <path d="M56.2516965,161.141377 L49.1075111,153.997191 C47.9450441,152.834724 46.0388144,152.82935 44.8664025,154.001762 L44.0017618,154.866402 C42.8281577,156.040007 42.8273037,157.937623 43.9971914,159.107511 L51.1413768,166.251697 L43.9971914,173.395882 C42.8347244,174.558349 42.8293499,176.464579 44.0017618,177.636991 L44.8664025,178.501631 C46.0400065,179.675235 47.9376234,179.676089 49.1075111,178.506202 L56.2516965,171.362016 L63.3958819,178.506202 C64.5583489,179.668669 66.4645787,179.674043 67.6369906,178.501631 L68.5016312,177.636991 C69.6752353,176.463386 69.6760894,174.56577 68.5062016,173.395882 L61.3620162,166.251697 L68.5062016,159.107511 C69.6686686,157.945044 69.6740431,156.038814 68.5016312,154.866402 L67.6369906,154.001762 C66.4633865,152.828158 64.5657696,152.827304 63.3958819,153.997191 L56.2516965,161.141377 Z M56.5,189 C44.0735931,189 34,178.926407 34,166.5 C34,154.073593 44.0735931,144 56.5,144 C68.9264069,144 79,154.073593 79,166.5 C79,178.926407 68.9264069,189 56.5,189 Z" id="Combined-Shape" fill="#0F5988" fill-rule="evenodd"></path>
                <g id="server" stroke-width="1" fill-rule="evenodd" transform="translate(216.000000, 240.000000)">
                    <path d="M0,4.99790202 C0,2.23763695 2.23560143,0 4.99634566,0 L142.003654,0 C144.76306,0 147,2.22944355 147,4.99790202 L147,26.002098 C147,28.762363 144.764399,31 142.003654,31 L4.99634566,31 C2.23694015,31 0,28.7705564 0,26.002098 L0,4.99790202 Z M5,7.99767164 L5,24.0023284 C5,26.7607516 7.23545133,29 9.99302029,29 L138.00698,29 C140.762376,29 143,26.7624662 143,24.0023284 L143,7.99767164 C143,5.23924844 140.764549,3 138.00698,3 L9.99302029,3 C7.23762372,3 5,5.23753381 5,7.99767164 Z" id="Combined-Shape" fill="#63B7E6"></path>
                    <rect id="Rectangle-4" fill="#63B7E6" x="81" y="9" width="4" height="15" rx="2"></rect>
                    <rect id="Rectangle-4-Copy" fill="#63B7E6" x="91" y="9" width="4" height="15" rx="2"></rect>
                    <rect id="Rectangle-4-Copy-2" fill="#63B7E6" x="101" y="9" width="4" height="15" rx="2"></rect>
                    <rect id="Rectangle-4-Copy-3" fill="#63B7E6" x="111" y="9" width="4" height="15" rx="2"></rect>
                    <rect id="Rectangle-4-Copy-4" fill="#63B7E6" x="121" y="9" width="4" height="15" rx="2"></rect>
                    <circle id="Oval-2" fill="#9ECFEF" cx="28" cy="17" r="6"></circle>
                </g>
                <g id="server-copy-4" stroke-width="1" fill-rule="evenodd" transform="translate(216.000000, 123.000000)">
                    <path d="M0,4.99790202 C0,2.23763695 2.23560143,0 4.99634566,0 L142.003654,0 C144.76306,0 147,2.22944355 147,4.99790202 L147,26.002098 C147,28.762363 144.764399,31 142.003654,31 L4.99634566,31 C2.23694015,31 0,28.7705564 0,26.002098 L0,4.99790202 Z M5,7.99767164 L5,24.0023284 C5,26.7607516 7.23545133,29 9.99302029,29 L138.00698,29 C140.762376,29 143,26.7624662 143,24.0023284 L143,7.99767164 C143,5.23924844 140.764549,3 138.00698,3 L9.99302029,3 C7.23762372,3 5,5.23753381 5,7.99767164 Z" id="Combined-Shape" fill="#63B7E6"></path>
                    <rect id="Rectangle-4" fill="#63B7E6" x="81" y="9" width="4" height="15" rx="2"></rect>
                    <rect id="Rectangle-4-Copy-6" fill="#63B7E6" x="72" y="9" width="4" height="15" rx="2"></rect>
                    <rect id="Rectangle-4-Copy" fill="#63B7E6" x="91" y="9" width="4" height="15" rx="2"></rect>
                    <rect id="Rectangle-4-Copy-2" fill="#63B7E6" x="101" y="9" width="4" height="15" rx="2"></rect>
                    <rect id="Rectangle-4-Copy-3" fill="#63B7E6" x="111" y="9" width="4" height="15" rx="2"></rect>
                    <rect id="Rectangle-4-Copy-4" fill="#63B7E6" x="121" y="9" width="4" height="15" rx="2"></rect>
                    <circle id="Oval-2" fill="#9ECFEF" cx="28" cy="17" r="6"></circle>
                </g>
                <g id="server-copy" stroke-width="1" fill-rule="evenodd" transform="translate(216.000000, 211.000000)">
                    <path d="M0,4.99790202 C0,2.23763695 2.23560143,0 4.99634566,0 L142.003654,0 C144.76306,0 147,2.22944355 147,4.99790202 L147,26.002098 C147,28.762363 144.764399,31 142.003654,31 L4.99634566,31 C2.23694015,31 0,28.7705564 0,26.002098 L0,4.99790202 Z M5,7.99767164 L5,24.0023284 C5,26.7607516 7.23545133,29 9.99302029,29 L138.00698,29 C140.762376,29 143,26.7624662 143,24.0023284 L143,7.99767164 C143,5.23924844 140.764549,3 138.00698,3 L9.99302029,3 C7.23762372,3 5,5.23753381 5,7.99767164 Z" id="Combined-Shape" fill="#63B7E6"></path>
                    <rect id="Rectangle-4" fill="#63B7E6" x="81" y="9" width="4" height="15" rx="2"></rect>
                    <rect id="Rectangle-4-Copy" fill="#63B7E6" x="91" y="9" width="4" height="15" rx="2"></rect>
                    <rect id="Rectangle-4-Copy-2" fill="#63B7E6" x="101" y="9" width="4" height="15" rx="2"></rect>
                    <rect id="Rectangle-4-Copy-3" fill="#63B7E6" x="111" y="9" width="4" height="15" rx="2"></rect>
                    <rect id="Rectangle-4-Copy-4" fill="#63B7E6" x="121" y="9" width="4" height="15" rx="2"></rect>
                    <circle id="Oval-2" fill="#0F5988" cx="28" cy="17" r="6"></circle>
                    <circle id="Oval-2-Copy" fill="#0F5988" cx="55" cy="17" r="6"></circle>
                </g>
                <g id="server-copy-5" stroke-width="1" fill-rule="evenodd" transform="translate(216.000000, 94.000000)">
                    <path d="M0,4.99790202 C0,2.23763695 2.23560143,0 4.99634566,0 L142.003654,0 C144.76306,0 147,2.22944355 147,4.99790202 L147,26.002098 C147,28.762363 144.764399,31 142.003654,31 L4.99634566,31 C2.23694015,31 0,28.7705564 0,26.002098 L0,4.99790202 Z M5,7.99767164 L5,24.0023284 C5,26.7607516 7.23545133,29 9.99302029,29 L138.00698,29 C140.762376,29 143,26.7624662 143,24.0023284 L143,7.99767164 C143,5.23924844 140.764549,3 138.00698,3 L9.99302029,3 C7.23762372,3 5,5.23753381 5,7.99767164 Z" id="Combined-Shape" fill="#63B7E6"></path>
                    <rect id="Rectangle-4" fill="#63B7E6" x="81" y="9" width="4" height="15" rx="2"></rect>
                    <rect id="Rectangle-4-Copy" fill="#63B7E6" x="91" y="9" width="4" height="15" rx="2"></rect>
                    <rect id="Rectangle-4-Copy-2" fill="#63B7E6" x="101" y="9" width="4" height="15" rx="2"></rect>
                    <rect id="Rectangle-4-Copy-3" fill="#63B7E6" x="111" y="9" width="4" height="15" rx="2"></rect>
                    <rect id="Rectangle-4-Copy-4" fill="#63B7E6" x="121" y="9" width="4" height="15" rx="2"></rect>
                    <circle id="Oval-2" fill="#9ECFEF" cx="28" cy="17" r="6"></circle>
                </g>
                <g id="server-copy-2" stroke-width="1" fill-rule="evenodd" transform="translate(216.000000, 183.000000)">
                    <path d="M0,4.99790202 C0,2.23763695 2.23560143,0 4.99634566,0 L142.003654,0 C144.76306,0 147,2.22944355 147,4.99790202 L147,26.002098 C147,28.762363 144.764399,31 142.003654,31 L4.99634566,31 C2.23694015,31 0,28.7705564 0,26.002098 L0,4.99790202 Z M5,7.99767164 L5,24.0023284 C5,26.7607516 7.23545133,29 9.99302029,29 L138.00698,29 C140.762376,29 143,26.7624662 143,24.0023284 L143,7.99767164 C143,5.23924844 140.764549,3 138.00698,3 L9.99302029,3 C7.23762372,3 5,5.23753381 5,7.99767164 Z" id="Combined-Shape" fill="#63B7E6"></path>
                    <rect id="Rectangle-4" fill="#63B7E6" x="81" y="9" width="4" height="15" rx="2"></rect>
                    <rect id="Rectangle-4-Copy-7" fill="#63B7E6" x="72" y="9" width="4" height="15" rx="2"></rect>
                    <rect id="Rectangle-4-Copy" fill="#63B7E6" x="91" y="9" width="4" height="15" rx="2"></rect>
                    <rect id="Rectangle-4-Copy-2" fill="#63B7E6" x="101" y="9" width="4" height="15" rx="2"></rect>
                    <rect id="Rectangle-4-Copy-3" fill="#63B7E6" x="111" y="9" width="4" height="15" rx="2"></rect>
                    <rect id="Rectangle-4-Copy-4" fill="#63B7E6" x="121" y="9" width="4" height="15" rx="2"></rect>
                    <circle id="Oval-2" fill="#9ECFEF" cx="28" cy="17" r="6"></circle>
                </g>
                <g id="server-copy-6" stroke-width="1" fill-rule="evenodd" transform="translate(216.000000, 66.000000)">
                    <path d="M0,4.99790202 C0,2.23763695 2.23560143,0 4.99634566,0 L142.003654,0 C144.76306,0 147,2.22944355 147,4.99790202 L147,26.002098 C147,28.762363 144.764399,31 142.003654,31 L4.99634566,31 C2.23694015,31 0,28.7705564 0,26.002098 L0,4.99790202 Z M5,7.99767164 L5,24.0023284 C5,26.7607516 7.23545133,29 9.99302029,29 L138.00698,29 C140.762376,29 143,26.7624662 143,24.0023284 L143,7.99767164 C143,5.23924844 140.764549,3 138.00698,3 L9.99302029,3 C7.23762372,3 5,5.23753381 5,7.99767164 Z" id="Combined-Shape" fill="#63B7E6"></path>
                    <rect id="Rectangle-4" fill="#63B7E6" x="81" y="9" width="4" height="15" rx="2"></rect>
                    <rect id="Rectangle-4-Copy-5" fill="#63B7E6" x="72" y="9" width="4" height="15" rx="2"></rect>
                    <rect id="Rectangle-4-Copy" fill="#63B7E6" x="91" y="9" width="4" height="15" rx="2"></rect>
                    <rect id="Rectangle-4-Copy-2" fill="#63B7E6" x="101" y="9" width="4" height="15" rx="2"></rect>
                    <rect id="Rectangle-4-Copy-3" fill="#63B7E6" x="111" y="9" width="4" height="15" rx="2"></rect>
                    <rect id="Rectangle-4-Copy-4" fill="#63B7E6" x="121" y="9" width="4" height="15" rx="2"></rect>
                    <circle id="Oval-2" fill="#9ECFEF" cx="28" cy="17" r="6"></circle>
                </g>
                <g id="server-copy-3" stroke-width="1" fill-rule="evenodd" transform="translate(216.000000, 154.000000)">
                    <path d="M0,4.99790202 C0,2.23763695 2.23560143,0 4.99634566,0 L142.003654,0 C144.76306,0 147,2.22944355 147,4.99790202 L147,26.002098 C147,28.762363 144.764399,31 142.003654,31 L4.99634566,31 C2.23694015,31 0,28.7705564 0,26.002098 L0,4.99790202 Z M5,7.99767164 L5,24.0023284 C5,26.7607516 7.23545133,29 9.99302029,29 L138.00698,29 C140.762376,29 143,26.7624662 143,24.0023284 L143,7.99767164 C143,5.23924844 140.764549,3 138.00698,3 L9.99302029,3 C7.23762372,3 5,5.23753381 5,7.99767164 Z" id="Combined-Shape" fill="#63B7E6"></path>
                    <rect id="Rectangle-4" fill="#63B7E6" x="81" y="9" width="4" height="15" rx="2"></rect>
                    <rect id="Rectangle-4-Copy" fill="#63B7E6" x="91" y="9" width="4" height="15" rx="2"></rect>
                    <rect id="Rectangle-4-Copy-2" fill="#63B7E6" x="101" y="9" width="4" height="15" rx="2"></rect>
                    <rect id="Rectangle-4-Copy-3" fill="#63B7E6" x="111" y="9" width="4" height="15" rx="2"></rect>
                    <rect id="Rectangle-4-Copy-4" fill="#63B7E6" x="121" y="9" width="4" height="15" rx="2"></rect>
                    <circle id="Oval-2" fill="#9ECFEF" cx="28" cy="17" r="6"></circle>
                </g>
                <g id="server-copy-7" stroke-width="1" fill-rule="evenodd" transform="translate(216.000000, 37.000000)">
                    <path d="M0,4.99790202 C0,2.23763695 2.23560143,0 4.99634566,0 L142.003654,0 C144.76306,0 147,2.22944355 147,4.99790202 L147,26.002098 C147,28.762363 144.764399,31 142.003654,31 L4.99634566,31 C2.23694015,31 0,28.7705564 0,26.002098 L0,4.99790202 Z M5,7.99767164 L5,24.0023284 C5,26.7607516 7.23545133,29 9.99302029,29 L138.00698,29 C140.762376,29 143,26.7624662 143,24.0023284 L143,7.99767164 C143,5.23924844 140.764549,3 138.00698,3 L9.99302029,3 C7.23762372,3 5,5.23753381 5,7.99767164 Z" id="Combined-Shape" fill="#63B7E6"></path>
                    <rect id="Rectangle-4" fill="#63B7E6" x="81" y="9" width="4" height="15" rx="2"></rect>
                    <rect id="Rectangle-4-Copy" fill="#63B7E6" x="91" y="9" width="4" height="15" rx="2"></rect>
                    <rect id="Rectangle-4-Copy-2" fill="#63B7E6" x="101" y="9" width="4" height="15" rx="2"></rect>
                    <rect id="Rectangle-4-Copy-3" fill="#63B7E6" x="111" y="9" width="4" height="15" rx="2"></rect>
                    <rect id="Rectangle-4-Copy-4" fill="#63B7E6" x="121" y="9" width="4" height="15" rx="2"></rect>
                    <circle id="Oval-2" fill="#9ECFEF" cx="28" cy="17" r="6"></circle>
                </g>
                <rect id="Rectangle-5" fill="#9ECFEF" fill-rule="evenodd" x="96" y="97" width="2" height="10" rx="1"></rect>
                <rect id="Rectangle-5-Copy" fill="#9ECFEF" fill-rule="evenodd" x="96" y="82" width="2" height="10" rx="1"></rect>
                <rect id="Rectangle-5-Copy-2" fill="#9ECFEF" fill-rule="evenodd" transform="translate(120.000000, 53.000000) rotate(90.000000) translate(-120.000000, -53.000000) " x="119" y="48" width="2" height="10" rx="1"></rect>
                <rect id="Rectangle-5-Copy-3" fill="#9ECFEF" fill-rule="evenodd" transform="translate(158.000000, 53.000000) rotate(90.000000) translate(-158.000000, -53.000000) " x="157" y="48" width="2" height="10" rx="1"></rect>
                <rect id="Rectangle-5-Copy-2" fill="#9ECFEF" fill-rule="evenodd" transform="translate(138.000000, 53.000000) rotate(90.000000) translate(-138.000000, -53.000000) " x="137" y="48" width="2" height="10" rx="1"></rect>
                <rect id="Rectangle-5-Copy-4" fill="#9ECFEF" fill-rule="evenodd" transform="translate(176.000000, 53.000000) rotate(90.000000) translate(-176.000000, -53.000000) " x="175" y="48" width="2" height="10" rx="1"></rect>
                <rect id="Rectangle-5-Copy-5" fill="#9ECFEF" fill-rule="evenodd" transform="translate(195.000000, 53.000000) rotate(90.000000) translate(-195.000000, -53.000000) " x="194" y="48" width="2" height="10" rx="1"></rect>
                <path d="M229.502072,1.10947051 C229.5798,1.2260517 229.722177,1.44992011 229.907464,1.75917177 C230.218291,2.27795288 230.529347,2.83921532 230.818792,3.42024179 C231.196352,4.1781496 231.507499,4.91125406 231.729264,5.59206306 C231.950306,6.27065216 232.074425,6.87425167 232.0916,7.37677209 C232.110872,7.94064389 231.97297,8.66907679 231.693791,9.51294802 C231.473696,10.1782257 231.173956,10.8925951 230.814584,11.6313965 C230.524487,12.2277836 230.21276,12.8053408 229.90124,13.3403483 C229.715445,13.6594343 229.572558,13.8910145 229.494306,14.012165 C229.367262,14.248138 229.234196,14.5169043 229.064517,14.8780072 C228.782966,15.4771933 228.50155,16.118785 228.238303,16.7788601 C227.960668,17.4750102 227.719224,18.1524273 227.524354,18.7985897 C227.181961,19.9339211 226.994306,20.9312569 227.000132,21.7737715 C227.005336,22.5264206 227.149853,23.3849104 227.408749,24.3373567 C227.596524,25.0281585 227.840635,25.7532592 228.1277,26.4972055 C228.367775,27.1193769 228.624438,27.7204089 228.881281,28.2790802 C229.036235,28.6161281 229.157933,28.8663589 229.22991,29.0079326 L231.01273,28.1015379 C230.952124,27.9823287 230.8418,27.7554856 230.698442,27.4436603 C230.458098,26.9208762 230.217574,26.3576372 229.993607,25.7772136 C229.729678,25.0932239 229.506936,24.4315974 229.338719,23.8127473 C229.121353,23.0130843 229.003926,22.3155166 229.000084,21.7599414 C228.995887,21.1530986 229.149558,20.3363838 229.439172,19.3760609 C229.616033,18.7896136 229.83849,18.1654672 230.096015,17.5197421 C230.343399,16.899443 230.609088,16.2937067 230.874642,15.7285656 C231.033226,15.3910722 231.155476,15.1441528 231.223036,15.0131869 C231.268515,14.9514824 231.427399,14.6939758 231.629595,14.3467222 C231.964727,13.7711635 232.299654,13.1506223 232.613098,12.5062391 C233.008729,11.6928947 233.341896,10.8988583 233.592577,10.1411274 C233.939678,9.09195097 234.119013,8.14466132 234.090433,7.30845599 C234.066096,6.59637958 233.905601,5.81588251 233.63092,4.97262233 C233.375677,4.18903847 233.027299,3.36821431 232.608961,2.52844973 C232.294753,1.8977133 231.959039,1.29195832 231.623095,0.731255328 C231.42032,0.392816528 231.26087,0.142103463 231.166126,0 L229.502072,1.10947051 Z" id="Path-2-Copy" fill="#63B7E6" fill-rule="nonzero"></path>
                <path d="M245.502072,1.10947051 C245.5798,1.2260517 245.722177,1.44992011 245.907464,1.75917177 C246.218291,2.27795288 246.529347,2.83921532 246.818792,3.42024179 C247.196352,4.1781496 247.507499,4.91125406 247.729264,5.59206306 C247.950306,6.27065216 248.074425,6.87425167 248.0916,7.37677209 C248.110872,7.94064389 247.97297,8.66907679 247.693791,9.51294802 C247.473696,10.1782257 247.173956,10.8925951 246.814584,11.6313965 C246.524487,12.2277836 246.21276,12.8053408 245.90124,13.3403483 C245.715445,13.6594343 245.572558,13.8910145 245.494306,14.012165 C245.367262,14.248138 245.234196,14.5169043 245.064517,14.8780072 C244.782966,15.4771933 244.50155,16.118785 244.238303,16.7788601 C243.960668,17.4750102 243.719224,18.1524273 243.524354,18.7985897 C243.181961,19.9339211 242.994306,20.9312569 243.000132,21.7737715 C243.005336,22.5264206 243.149853,23.3849104 243.408749,24.3373567 C243.596524,25.0281585 243.840635,25.7532592 244.1277,26.4972055 C244.367775,27.1193769 244.624438,27.7204089 244.881281,28.2790802 C245.036235,28.6161281 245.157933,28.8663589 245.22991,29.0079326 L247.01273,28.1015379 C246.952124,27.9823287 246.8418,27.7554856 246.698442,27.4436603 C246.458098,26.9208762 246.217574,26.3576372 245.993607,25.7772136 C245.729678,25.0932239 245.506936,24.4315974 245.338719,23.8127473 C245.121353,23.0130843 245.003926,22.3155166 245.000084,21.7599414 C244.995887,21.1530986 245.149558,20.3363838 245.439172,19.3760609 C245.616033,18.7896136 245.83849,18.1654672 246.096015,17.5197421 C246.343399,16.899443 246.609088,16.2937067 246.874642,15.7285656 C247.033226,15.3910722 247.155476,15.1441528 247.223036,15.0131869 C247.268515,14.9514824 247.427399,14.6939758 247.629595,14.3467222 C247.964727,13.7711635 248.299654,13.1506223 248.613098,12.5062391 C249.008729,11.6928947 249.341896,10.8988583 249.592577,10.1411274 C249.939678,9.09195097 250.119013,8.14466132 250.090433,7.30845599 C250.066096,6.59637958 249.905601,5.81588251 249.63092,4.97262233 C249.375677,4.18903847 249.027299,3.36821431 248.608961,2.52844973 C248.294753,1.8977133 247.959039,1.29195832 247.623095,0.731255328 C247.42032,0.392816528 247.26087,0.142103463 247.166126,0 L245.502072,1.10947051 Z" id="Path-2-Copy-2" fill="#63B7E6" fill-rule="nonzero"></path>
                <path d="M260.502072,1.10947051 C260.5798,1.2260517 260.722177,1.44992011 260.907464,1.75917177 C261.218291,2.27795288 261.529347,2.83921532 261.818792,3.42024179 C262.196352,4.1781496 262.507499,4.91125406 262.729264,5.59206306 C262.950306,6.27065216 263.074425,6.87425167 263.0916,7.37677209 C263.110872,7.94064389 262.97297,8.66907679 262.693791,9.51294802 C262.473696,10.1782257 262.173956,10.8925951 261.814584,11.6313965 C261.524487,12.2277836 261.21276,12.8053408 260.90124,13.3403483 C260.715445,13.6594343 260.572558,13.8910145 260.494306,14.012165 C260.367262,14.248138 260.234196,14.5169043 260.064517,14.8780072 C259.782966,15.4771933 259.50155,16.118785 259.238303,16.7788601 C258.960668,17.4750102 258.719224,18.1524273 258.524354,18.7985897 C258.181961,19.9339211 257.994306,20.9312569 258.000132,21.7737715 C258.005336,22.5264206 258.149853,23.3849104 258.408749,24.3373567 C258.596524,25.0281585 258.840635,25.7532592 259.1277,26.4972055 C259.367775,27.1193769 259.624438,27.7204089 259.881281,28.2790802 C260.036235,28.6161281 260.157933,28.8663589 260.22991,29.0079326 L262.01273,28.1015379 C261.952124,27.9823287 261.8418,27.7554856 261.698442,27.4436603 C261.458098,26.9208762 261.217574,26.3576372 260.993607,25.7772136 C260.729678,25.0932239 260.506936,24.4315974 260.338719,23.8127473 C260.121353,23.0130843 260.003926,22.3155166 260.000084,21.7599414 C259.995887,21.1530986 260.149558,20.3363838 260.439172,19.3760609 C260.616033,18.7896136 260.83849,18.1654672 261.096015,17.5197421 C261.343399,16.899443 261.609088,16.2937067 261.874642,15.7285656 C262.033226,15.3910722 262.155476,15.1441528 262.223036,15.0131869 C262.268515,14.9514824 262.427399,14.6939758 262.629595,14.3467222 C262.964727,13.7711635 263.299654,13.1506223 263.613098,12.5062391 C264.008729,11.6928947 264.341896,10.8988583 264.592577,10.1411274 C264.939678,9.09195097 265.119013,8.14466132 265.090433,7.30845599 C265.066096,6.59637958 264.905601,5.81588251 264.63092,4.97262233 C264.375677,4.18903847 264.027299,3.36821431 263.608961,2.52844973 C263.294753,1.8977133 262.959039,1.29195832 262.623095,0.731255328 C262.42032,0.392816528 262.26087,0.142103463 262.166126,0 L260.502072,1.10947051 Z" id="Path-2-Copy-4" fill="#63B7E6" fill-rule="nonzero"></path>
                <path d="M275.502072,1.10947051 C275.5798,1.2260517 275.722177,1.44992011 275.907464,1.75917177 C276.218291,2.27795288 276.529347,2.83921532 276.818792,3.42024179 C277.196352,4.1781496 277.507499,4.91125406 277.729264,5.59206306 C277.950306,6.27065216 278.074425,6.87425167 278.0916,7.37677209 C278.110872,7.94064389 277.97297,8.66907679 277.693791,9.51294802 C277.473696,10.1782257 277.173956,10.8925951 276.814584,11.6313965 C276.524487,12.2277836 276.21276,12.8053408 275.90124,13.3403483 C275.715445,13.6594343 275.572558,13.8910145 275.494306,14.012165 C275.367262,14.248138 275.234196,14.5169043 275.064517,14.8780072 C274.782966,15.4771933 274.50155,16.118785 274.238303,16.7788601 C273.960668,17.4750102 273.719224,18.1524273 273.524354,18.7985897 C273.181961,19.9339211 272.994306,20.9312569 273.000132,21.7737715 C273.005336,22.5264206 273.149853,23.3849104 273.408749,24.3373567 C273.596524,25.0281585 273.840635,25.7532592 274.1277,26.4972055 C274.367775,27.1193769 274.624438,27.7204089 274.881281,28.2790802 C275.036235,28.6161281 275.157933,28.8663589 275.22991,29.0079326 L277.01273,28.1015379 C276.952124,27.9823287 276.8418,27.7554856 276.698442,27.4436603 C276.458098,26.9208762 276.217574,26.3576372 275.993607,25.7772136 C275.729678,25.0932239 275.506936,24.4315974 275.338719,23.8127473 C275.121353,23.0130843 275.003926,22.3155166 275.000084,21.7599414 C274.995887,21.1530986 275.149558,20.3363838 275.439172,19.3760609 C275.616033,18.7896136 275.83849,18.1654672 276.096015,17.5197421 C276.343399,16.899443 276.609088,16.2937067 276.874642,15.7285656 C277.033226,15.3910722 277.155476,15.1441528 277.223036,15.0131869 C277.268515,14.9514824 277.427399,14.6939758 277.629595,14.3467222 C277.964727,13.7711635 278.299654,13.1506223 278.613098,12.5062391 C279.008729,11.6928947 279.341896,10.8988583 279.592577,10.1411274 C279.939678,9.09195097 280.119013,8.14466132 280.090433,7.30845599 C280.066096,6.59637958 279.905601,5.81588251 279.63092,4.97262233 C279.375677,4.18903847 279.027299,3.36821431 278.608961,2.52844973 C278.294753,1.8977133 277.959039,1.29195832 277.623095,0.731255328 C277.42032,0.392816528 277.26087,0.142103463 277.166126,0 L275.502072,1.10947051 Z" id="Path-2-Copy-5" fill="#63B7E6" fill-rule="nonzero"></path>
                <path d="M292.502072,1.10947051 C292.5798,1.2260517 292.722177,1.44992011 292.907464,1.75917177 C293.218291,2.27795288 293.529347,2.83921532 293.818792,3.42024179 C294.196352,4.1781496 294.507499,4.91125406 294.729264,5.59206306 C294.950306,6.27065216 295.074425,6.87425167 295.0916,7.37677209 C295.110872,7.94064389 294.97297,8.66907679 294.693791,9.51294802 C294.473696,10.1782257 294.173956,10.8925951 293.814584,11.6313965 C293.524487,12.2277836 293.21276,12.8053408 292.90124,13.3403483 C292.715445,13.6594343 292.572558,13.8910145 292.494306,14.012165 C292.367262,14.248138 292.234196,14.5169043 292.064517,14.8780072 C291.782966,15.4771933 291.50155,16.118785 291.238303,16.7788601 C290.960668,17.4750102 290.719224,18.1524273 290.524354,18.7985897 C290.181961,19.9339211 289.994306,20.9312569 290.000132,21.7737715 C290.005336,22.5264206 290.149853,23.3849104 290.408749,24.3373567 C290.596524,25.0281585 290.840635,25.7532592 291.1277,26.4972055 C291.367775,27.1193769 291.624438,27.7204089 291.881281,28.2790802 C292.036235,28.6161281 292.157933,28.8663589 292.22991,29.0079326 L294.01273,28.1015379 C293.952124,27.9823287 293.8418,27.7554856 293.698442,27.4436603 C293.458098,26.9208762 293.217574,26.3576372 292.993607,25.7772136 C292.729678,25.0932239 292.506936,24.4315974 292.338719,23.8127473 C292.121353,23.0130843 292.003926,22.3155166 292.000084,21.7599414 C291.995887,21.1530986 292.149558,20.3363838 292.439172,19.3760609 C292.616033,18.7896136 292.83849,18.1654672 293.096015,17.5197421 C293.343399,16.899443 293.609088,16.2937067 293.874642,15.7285656 C294.033226,15.3910722 294.155476,15.1441528 294.223036,15.0131869 C294.268515,14.9514824 294.427399,14.6939758 294.629595,14.3467222 C294.964727,13.7711635 295.299654,13.1506223 295.613098,12.5062391 C296.008729,11.6928947 296.341896,10.8988583 296.592577,10.1411274 C296.939678,9.09195097 297.119013,8.14466132 297.090433,7.30845599 C297.066096,6.59637958 296.905601,5.81588251 296.63092,4.97262233 C296.375677,4.18903847 296.027299,3.36821431 295.608961,2.52844973 C295.294753,1.8977133 294.959039,1.29195832 294.623095,0.731255328 C294.42032,0.392816528 294.26087,0.142103463 294.166126,0 L292.502072,1.10947051 Z" id="Path-2-Copy-6" fill="#63B7E6" fill-rule="nonzero"></path>
                <path d="M308.502072,1.10947051 C308.5798,1.2260517 308.722177,1.44992011 308.907464,1.75917177 C309.218291,2.27795288 309.529347,2.83921532 309.818792,3.42024179 C310.196352,4.1781496 310.507499,4.91125406 310.729264,5.59206306 C310.950306,6.27065216 311.074425,6.87425167 311.0916,7.37677209 C311.110872,7.94064389 310.97297,8.66907679 310.693791,9.51294802 C310.473696,10.1782257 310.173956,10.8925951 309.814584,11.6313965 C309.524487,12.2277836 309.21276,12.8053408 308.90124,13.3403483 C308.715445,13.6594343 308.572558,13.8910145 308.494306,14.012165 C308.367262,14.248138 308.234196,14.5169043 308.064517,14.8780072 C307.782966,15.4771933 307.50155,16.118785 307.238303,16.7788601 C306.960668,17.4750102 306.719224,18.1524273 306.524354,18.7985897 C306.181961,19.9339211 305.994306,20.9312569 306.000132,21.7737715 C306.005336,22.5264206 306.149853,23.3849104 306.408749,24.3373567 C306.596524,25.0281585 306.840635,25.7532592 307.1277,26.4972055 C307.367775,27.1193769 307.624438,27.7204089 307.881281,28.2790802 C308.036235,28.6161281 308.157933,28.8663589 308.22991,29.0079326 L310.01273,28.1015379 C309.952124,27.9823287 309.8418,27.7554856 309.698442,27.4436603 C309.458098,26.9208762 309.217574,26.3576372 308.993607,25.7772136 C308.729678,25.0932239 308.506936,24.4315974 308.338719,23.8127473 C308.121353,23.0130843 308.003926,22.3155166 308.000084,21.7599414 C307.995887,21.1530986 308.149558,20.3363838 308.439172,19.3760609 C308.616033,18.7896136 308.83849,18.1654672 309.096015,17.5197421 C309.343399,16.899443 309.609088,16.2937067 309.874642,15.7285656 C310.033226,15.3910722 310.155476,15.1441528 310.223036,15.0131869 C310.268515,14.9514824 310.427399,14.6939758 310.629595,14.3467222 C310.964727,13.7711635 311.299654,13.1506223 311.613098,12.5062391 C312.008729,11.6928947 312.341896,10.8988583 312.592577,10.1411274 C312.939678,9.09195097 313.119013,8.14466132 313.090433,7.30845599 C313.066096,6.59637958 312.905601,5.81588251 312.63092,4.97262233 C312.375677,4.18903847 312.027299,3.36821431 311.608961,2.52844973 C311.294753,1.8977133 310.959039,1.29195832 310.623095,0.731255328 C310.42032,0.392816528 310.26087,0.142103463 310.166126,0 L308.502072,1.10947051 Z" id="Path-2-Copy-7" fill="#63B7E6" fill-rule="nonzero"></path>
                <path d="M323.502072,1.10947051 C323.5798,1.2260517 323.722177,1.44992011 323.907464,1.75917177 C324.218291,2.27795288 324.529347,2.83921532 324.818792,3.42024179 C325.196352,4.1781496 325.507499,4.91125406 325.729264,5.59206306 C325.950306,6.27065216 326.074425,6.87425167 326.0916,7.37677209 C326.110872,7.94064389 325.97297,8.66907679 325.693791,9.51294802 C325.473696,10.1782257 325.173956,10.8925951 324.814584,11.6313965 C324.524487,12.2277836 324.21276,12.8053408 323.90124,13.3403483 C323.715445,13.6594343 323.572558,13.8910145 323.494306,14.012165 C323.367262,14.248138 323.234196,14.5169043 323.064517,14.8780072 C322.782966,15.4771933 322.50155,16.118785 322.238303,16.7788601 C321.960668,17.4750102 321.719224,18.1524273 321.524354,18.7985897 C321.181961,19.9339211 320.994306,20.9312569 321.000132,21.7737715 C321.005336,22.5264206 321.149853,23.3849104 321.408749,24.3373567 C321.596524,25.0281585 321.840635,25.7532592 322.1277,26.4972055 C322.367775,27.1193769 322.624438,27.7204089 322.881281,28.2790802 C323.036235,28.6161281 323.157933,28.8663589 323.22991,29.0079326 L325.01273,28.1015379 C324.952124,27.9823287 324.8418,27.7554856 324.698442,27.4436603 C324.458098,26.9208762 324.217574,26.3576372 323.993607,25.7772136 C323.729678,25.0932239 323.506936,24.4315974 323.338719,23.8127473 C323.121353,23.0130843 323.003926,22.3155166 323.000084,21.7599414 C322.995887,21.1530986 323.149558,20.3363838 323.439172,19.3760609 C323.616033,18.7896136 323.83849,18.1654672 324.096015,17.5197421 C324.343399,16.899443 324.609088,16.2937067 324.874642,15.7285656 C325.033226,15.3910722 325.155476,15.1441528 325.223036,15.0131869 C325.268515,14.9514824 325.427399,14.6939758 325.629595,14.3467222 C325.964727,13.7711635 326.299654,13.1506223 326.613098,12.5062391 C327.008729,11.6928947 327.341896,10.8988583 327.592577,10.1411274 C327.939678,9.09195097 328.119013,8.14466132 328.090433,7.30845599 C328.066096,6.59637958 327.905601,5.81588251 327.63092,4.97262233 C327.375677,4.18903847 327.027299,3.36821431 326.608961,2.52844973 C326.294753,1.8977133 325.959039,1.29195832 325.623095,0.731255328 C325.42032,0.392816528 325.26087,0.142103463 325.166126,0 L323.502072,1.10947051 Z" id="Path-2-Copy-8" fill="#63B7E6" fill-rule="nonzero"></path>
                <path d="M94.830275,28.0079326 L124.830275,73.0079326 L64.830275,73.0079326 L94.830275,28.0079326 Z M95,70 C96.6568542,70 98,68.6568542 98,67 C98,65.3431458 96.6568542,64 95,64 C93.3431458,64 92,65.3431458 92,67 C92,68.6568542 93.3431458,70 95,70 Z M92,42.008788 L92,56.991212 C92,58.6544098 93.3431458,60 95,60 C96.6534829,60 98,58.6529197 98,56.991212 L98,42.008788 C98,40.3455902 96.6568542,39 95,39 C93.3465171,39 92,40.3470803 92,42.008788 Z" id="Combined-Shape" fill="#0F5988" fill-rule="evenodd"></path>
            </g>
        </g>
    </g>
</svg>