<?xml version="1.0" encoding="UTF-8"?>
<svg width="64px" height="83px" viewBox="0 0 64 83" version="1.1" xmlns="http://www.w3.org/2000/svg" xmlns:xlink="http://www.w3.org/1999/xlink">
    <!-- Generator: Sketch 42 (36781) - http://www.bohemiancoding.com/sketch -->
    <title>notepad_L</title>
    <desc>Created with Sketch.</desc>
    <defs></defs>
    <g id="ESODA-HD" stroke="none" stroke-width="1" fill="none" fill-rule="evenodd">
        <g transform="translate(-278.000000, -2600.000000)" id="点赞留言" fill="#63B7E6">
            <g transform="translate(0.000000, 2440.000000)">
                <path d="M290.444444,167.136573 L290.444444,170.2029 C290.444444,170.263469 290.433747,170.321444 290.414137,170.375086 C290.434038,170.481961 290.444444,170.592191 290.444444,170.704859 C290.444444,171.690214 289.648506,172.489003 288.666667,172.489003 C287.684827,172.489003 286.888889,171.690214 286.888889,170.704859 C286.888889,169.719504 287.684827,168.920716 288.666667,168.920716 L288.666667,167.136573 L281.555556,167.136573 L281.555556,238.502302 L338.444444,238.502302 L338.444444,167.136573 L333.111111,167.136573 L333.111111,170.2029 C333.111111,170.263469 333.100414,170.321444 333.080804,170.375086 C333.100705,170.481961 333.111111,170.592191 333.111111,170.704859 C333.111111,171.690214 332.315173,172.489003 331.333333,172.489003 C330.351494,172.489003 329.555556,171.690214 329.555556,170.704859 C329.555556,169.719504 330.351494,168.920716 331.333333,168.920716 L331.333333,167.136573 L326,167.136573 L326,170.2029 C326,170.263469 325.989303,170.321444 325.969693,170.375086 C325.989594,170.481961 326,170.592191 326,170.704859 C326,171.690214 325.204062,172.489003 324.222222,172.489003 C323.240383,172.489003 322.444444,171.690214 322.444444,170.704859 C322.444444,169.719504 323.240383,168.920716 324.222222,168.920716 L324.222222,167.136573 L318.888889,167.136573 L318.888889,170.2029 C318.888889,170.263469 318.878192,170.321444 318.858582,170.375086 C318.878482,170.481961 318.888889,170.592191 318.888889,170.704859 C318.888889,171.690214 318.092951,172.489003 317.111111,172.489003 C316.129272,172.489003 315.333333,171.690214 315.333333,170.704859 C315.333333,169.719504 316.129272,168.920716 317.111111,168.920716 L317.111111,167.136573 L311.777778,167.136573 L311.777778,170.2029 C311.777778,170.263469 311.767081,170.321444 311.747471,170.375086 C311.767371,170.481961 311.777778,170.592191 311.777778,170.704859 C311.777778,171.690214 310.98184,172.489003 310,172.489003 C309.01816,172.489003 308.222222,171.690214 308.222222,170.704859 C308.222222,169.719504 309.01816,168.920716 310,168.920716 L310,167.136573 L304.666667,167.136573 L304.666667,170.2029 C304.666667,170.263469 304.65597,170.321444 304.636359,170.375086 C304.65626,170.481961 304.666667,170.592191 304.666667,170.704859 C304.666667,171.690214 303.870728,172.489003 302.888889,172.489003 C301.907049,172.489003 301.111111,171.690214 301.111111,170.704859 C301.111111,169.719504 301.907049,168.920716 302.888889,168.920716 L302.888889,167.136573 L297.555556,167.136573 L297.555556,170.2029 C297.555556,170.263469 297.544859,170.321444 297.525248,170.375086 C297.545149,170.481961 297.555556,170.592191 297.555556,170.704859 C297.555556,171.690214 296.759617,172.489003 295.777778,172.489003 C294.795938,172.489003 294,171.690214 294,170.704859 C294,169.719504 294.795938,168.920716 295.777778,168.920716 L295.777778,167.136573 L290.444444,167.136573 Z M288.666667,163.568286 L288.666667,160.50196 C288.666667,160.223586 288.892622,160 289.171351,160 L289.93976,160 C290.226454,160 290.444444,160.224735 290.444444,160.50196 L290.444444,163.568286 L295.777778,163.568286 L295.777778,160.50196 C295.777778,160.223586 296.003733,160 296.282462,160 L297.050871,160 C297.337565,160 297.555556,160.224735 297.555556,160.50196 L297.555556,163.568286 L302.888889,163.568286 L302.888889,160.50196 C302.888889,160.223586 303.114844,160 303.393573,160 L304.161982,160 C304.448676,160 304.666667,160.224735 304.666667,160.50196 L304.666667,163.568286 L310,163.568286 L310,160.50196 C310,160.223586 310.225955,160 310.504684,160 L311.273093,160 C311.559787,160 311.777778,160.224735 311.777778,160.50196 L311.777778,163.568286 L317.111111,163.568286 L317.111111,160.50196 C317.111111,160.223586 317.337066,160 317.615796,160 L318.384204,160 C318.670898,160 318.888889,160.224735 318.888889,160.50196 L318.888889,163.568286 L324.222222,163.568286 L324.222222,160.50196 C324.222222,160.223586 324.448177,160 324.726907,160 L325.495316,160 C325.78201,160 326,160.224735 326,160.50196 L326,163.568286 L331.333333,163.568286 L331.333333,160.50196 C331.333333,160.223586 331.559288,160 331.838018,160 L332.606427,160 C332.893121,160 333.111111,160.224735 333.111111,160.50196 L333.111111,163.568286 L342,163.568286 L342,242.070588 L278,242.070588 L278,163.568286 L288.666667,163.568286 Z M287.897292,179.625575 C287.340366,179.625575 286.888889,180.077501 286.888889,180.619542 L286.888889,182.199895 C286.888889,182.748848 287.346366,183.193862 287.897292,183.193862 L332.102708,183.193862 C332.659634,183.193862 333.111111,182.741936 333.111111,182.199895 L333.111111,180.619542 C333.111111,180.07059 332.653634,179.625575 332.102708,179.625575 L287.897292,179.625575 Z M287.897292,204.603581 C287.340366,204.603581 286.888889,205.055507 286.888889,205.597547 L286.888889,207.1779 C286.888889,207.726853 287.346366,208.171867 287.897292,208.171867 L332.102708,208.171867 C332.659634,208.171867 333.111111,207.719941 333.111111,207.1779 L333.111111,205.597547 C333.111111,205.048595 332.653634,204.603581 332.102708,204.603581 L287.897292,204.603581 Z M287.881944,192.114578 C287.333495,192.114578 286.888889,192.566504 286.888889,193.108545 L286.888889,194.688898 C286.888889,195.23785 287.329927,195.682864 287.881944,195.682864 L309.006944,195.682864 C309.555394,195.682864 310,195.230939 310,194.688898 L310,193.108545 C310,192.559592 309.558962,192.114578 309.006944,192.114578 L287.881944,192.114578 Z M287.881944,217.092583 C287.333495,217.092583 286.888889,217.544509 286.888889,218.08655 L286.888889,219.666903 C286.888889,220.215856 287.329927,220.66087 287.881944,220.66087 L309.006944,220.66087 C309.555394,220.66087 310,220.208944 310,219.666903 L310,218.08655 C310,217.537597 309.558962,217.092583 309.006944,217.092583 L287.881944,217.092583 Z" id="notepad_L"></path>
            </g>
        </g>
    </g>
</svg>