<?xml version="1.0" encoding="UTF-8"?>
<svg width="32px" height="32px" viewBox="0 0 32 32" version="1.1" xmlns="http://www.w3.org/2000/svg" xmlns:xlink="http://www.w3.org/1999/xlink">
    <!-- Generator: Sketch 42 (36781) - http://www.bohemiancoding.com/sketch -->
    <title>sina_weibo_F</title>
    <desc>Created with Sketch.</desc>
    <defs></defs>
    <g id="ESODA-HD" stroke="none" stroke-width="1" fill="none" fill-rule="evenodd">
        <g transform="translate(-1158.000000, -2870.000000)" id="buttom" fill="#63B7E6">
            <g transform="translate(0.000000, 2760.000000)">
                <path d="M1174,142 C1165.16344,142 1158,134.836556 1158,126 C1158,117.163444 1165.16344,110 1174,110 C1182.83656,110 1190,117.163444 1190,126 C1190,134.836556 1182.83656,142 1174,142 Z M1172.4,134.32 C1177.87866,134.32 1182.27726,131.454623 1182.27726,127.92 C1182.27726,124.933953 1178.53788,124.933953 1178.53788,124.741201 C1178.53788,124.54845 1180.4,122.81369 1178.53788,121.734284 C1176.67577,120.654877 1173.26973,122.295972 1173.37215,122.119786 C1174.83706,119.6 1172.74323,118.804467 1171.67594,118.804467 C1169.13163,118.804467 1162.48,124.385377 1162.48,127.92 C1162.48,131.454623 1166.92134,134.32 1172.4,134.32 Z M1172.65896,132.359515 C1169.15874,132.85144 1166.06204,131.405853 1165.74228,129.130708 C1165.42253,126.855562 1168.00082,124.612409 1171.50104,124.120485 C1175.00126,123.62856 1178.09796,125.074147 1178.41772,127.349292 C1178.73747,129.624438 1176.15918,131.867591 1172.65896,132.359515 Z M1172.01204,131.739757 C1174.09385,131.335095 1175.50812,129.600684 1175.1709,127.865844 C1174.83368,126.131003 1172.87267,125.052681 1170.79086,125.457343 C1168.70905,125.862006 1167.29478,127.596416 1167.632,129.331257 C1167.96922,131.066098 1169.93023,132.14442 1172.01204,131.739757 Z M1172.08,128.56 C1171.72654,128.56 1171.44,128.273462 1171.44,127.92 C1171.44,127.566538 1171.72654,127.28 1172.08,127.28 C1172.43346,127.28 1172.72,127.566538 1172.72,127.92 C1172.72,128.273462 1172.43346,128.56 1172.08,128.56 Z M1170.60426,130.019907 C1169.96357,130.318666 1169.26255,130.171321 1169.03848,129.690803 C1168.81441,129.210285 1169.15215,128.578555 1169.79284,128.279796 C1170.43353,127.981037 1171.13455,128.128382 1171.35862,128.6089 C1171.58269,129.089419 1171.24495,129.721148 1170.60426,130.019907 Z M1180.96655,120.192275 C1179.81004,119.151418 1178.82308,119.503873 1178.82308,119.503873 C1178.28014,119.556963 1177.84,120.044739 1177.84,120.592521 L1177.84,119.700907 C1177.84,120.249061 1178.28117,120.670839 1178.83467,120.692947 C1178.83467,120.692947 1179.57874,120.500677 1180.19554,121.233131 C1180.81235,121.965585 1180.43716,122.613215 1180.43716,122.613215 C1180.30372,123.149748 1180.65234,123.584695 1181.20433,123.584695 L1180.53602,123.584695 C1181.09315,123.584695 1181.62554,123.143901 1181.67988,122.604092 C1181.67988,122.604092 1182.12306,121.233131 1180.96655,120.192275 Z M1183.12536,118.110562 C1181.0051,116.10595 1178.69035,116.426065 1178.69035,116.426065 C1177.86725,116.41167 1177.2,117.07606 1177.2,117.900814 L1177.2,116.609749 C1177.2,117.438625 1177.8665,118.086178 1178.69955,118.117608 C1178.69955,118.117608 1180.88945,117.774118 1182.16161,119.6 C1183.43376,121.425882 1182.94318,122.904827 1182.94318,122.904827 C1182.85218,123.727412 1183.4488,124.394249 1184.28004,124.394249 L1182.97299,124.394249 C1183.80231,124.394249 1184.55826,123.73438 1184.60747,122.907719 C1184.60747,122.907719 1185.24562,120.115174 1183.12536,118.110562 Z" id="sina_weibo_F"></path>
            </g>
        </g>
    </g>
</svg>