<?xml version="1.0" encoding="UTF-8"?>
<svg width="32px" height="32px" viewBox="0 0 32 32" version="1.1" xmlns="http://www.w3.org/2000/svg" xmlns:xlink="http://www.w3.org/1999/xlink">
    <!-- Generator: Sketch 42 (36781) - http://www.bohemiancoding.com/sketch -->
    <title>wechat_F</title>
    <desc>Created with Sketch.</desc>
    <defs></defs>
    <g id="ESODA-HD" stroke="none" stroke-width="1" fill="none" fill-rule="evenodd">
        <g transform="translate(-1033.000000, -2870.000000)" id="buttom" fill="#63B7E6">
            <g transform="translate(0.000000, 2760.000000)">
                <path d="M1053.44825,123.445627 C1053.10127,120.211765 1049.95277,117.68 1046.12,117.68 C1042.05518,117.68 1038.76,120.527601 1038.76,124.040295 C1038.76,126.138663 1039.93588,127.999694 1041.74926,129.158146 C1041.95243,129.287935 1041.075,131.114711 1041.29342,131.226208 C1041.66002,131.413354 1043.13563,129.868006 1043.53948,129.99868 C1044.34249,130.258512 1045.21204,130.40059 1046.12,130.40059 C1046.57495,130.40059 1047.02027,130.364918 1047.4524,130.296634 C1048.30739,132.243917 1050.54019,133.63282 1053.16,133.63282 C1053.87604,133.63282 1054.56317,133.529066 1055.20116,133.338513 C1055.41064,133.275947 1056.82829,134.52093 1057.02645,134.440248 C1057.34798,134.309345 1056.4402,132.838483 1056.727,132.664038 C1058.24975,131.73784 1059.24,130.23406 1059.24,128.53641 C1059.24,125.802736 1056.6723,123.571762 1053.44825,123.445627 Z M1052.16471,123.507951 C1049.28029,123.906083 1047.08,126.005862 1047.08,128.53641 C1047.08,128.724614 1047.09217,128.910435 1047.11589,129.093351 C1046.79184,129.138144 1046.45917,129.161442 1046.12,129.161442 C1045.27122,129.161442 1044.46307,129.015531 1043.72923,128.751977 C1043.65603,128.725687 1043.395,128.646928 1043.25379,128.751977 C1042.93636,128.988122 1042.5107,129.478289 1042.5107,129.478289 C1042.5107,129.478289 1042.66653,129.121378 1042.71876,128.600179 C1042.74263,128.362032 1042.37917,128.195049 1042.30663,128.145985 C1040.92431,127.210994 1040.04,125.666348 1040.04,124.060721 C1040.04,121.24367 1042.76211,118.96 1046.12,118.96 C1049.25526,118.96 1051.83625,120.950893 1052.16471,123.507951 Z M1049,142 C1040.16344,142 1033,134.836556 1033,126 C1033,117.163444 1040.16344,110 1049,110 C1057.83656,110 1065,117.163444 1065,126 C1065,134.836556 1057.83656,142 1049,142 Z M1043.56,122.8 C1044.09019,122.8 1044.52,122.370193 1044.52,121.84 C1044.52,121.309807 1044.09019,120.88 1043.56,120.88 C1043.02981,120.88 1042.6,121.309807 1042.6,121.84 C1042.6,122.370193 1043.02981,122.8 1043.56,122.8 Z M1048.68,122.8 C1049.21019,122.8 1049.64,122.370193 1049.64,121.84 C1049.64,121.309807 1049.21019,120.88 1048.68,120.88 C1048.14981,120.88 1047.72,121.309807 1047.72,121.84 C1047.72,122.370193 1048.14981,122.8 1048.68,122.8 Z M1050.92,127.28 C1050.56654,127.28 1050.28,126.993462 1050.28,126.64 C1050.28,126.286538 1050.56654,126 1050.92,126 C1051.27346,126 1051.56,126.286538 1051.56,126.64 C1051.56,126.993462 1051.27346,127.28 1050.92,127.28 Z M1054.76,127.28 C1054.40654,127.28 1054.12,126.993462 1054.12,126.64 C1054.12,126.286538 1054.40654,126 1054.76,126 C1055.11346,126 1055.4,126.286538 1055.4,126.64 C1055.4,126.993462 1055.11346,127.28 1054.76,127.28 Z" id="wechat_F"></path>
            </g>
        </g>
    </g>
</svg>