<?xml version="1.0" encoding="UTF-8"?>
<svg width="32px" height="32px" viewBox="0 0 32 32" version="1.1" xmlns="http://www.w3.org/2000/svg" xmlns:xlink="http://www.w3.org/1999/xlink">
    <!-- Generator: Sketch 42 (36781) - http://www.bohemiancoding.com/sketch -->
    <title>email_F</title>
    <desc>Created with Sketch.</desc>
    <defs></defs>
    <g id="ESODA-HD" stroke="none" stroke-width="1" fill="none" fill-rule="evenodd">
        <g transform="translate(-970.000000, -2870.000000)" id="buttom" fill="#63B7E6">
            <g transform="translate(0.000000, 2760.000000)">
                <path d="M986,142 C977.163444,142 970,134.836556 970,126 C970,117.163444 977.163444,110 986,110 C994.836556,110 1002,117.163444 1002,126 C1002,134.836556 994.836556,142 986,142 Z M977.01,120.22903 L986.027752,128.626331 L994.96,120.22903 L977.01,120.22903 Z M976.4,121.451169 L976.4,130.526533 L981.390751,126.032204 L976.4,121.451169 Z M995.6,121.383959 L990.472649,126.019631 L995.6,130.526533 L995.6,121.383959 Z M989.623523,126.781855 L986.007052,130.151727 L982.335833,126.781855 L977.028054,131.76 L994.98605,131.76 L989.623523,126.781855 Z" id="email_F"></path>
            </g>
        </g>
    </g>
</svg>