<?xml version="1.0" encoding="UTF-8"?>
<svg width="32px" height="32px" viewBox="0 0 32 32" version="1.1" xmlns="http://www.w3.org/2000/svg" xmlns:xlink="http://www.w3.org/1999/xlink">
    <!-- Generator: Sketch 42 (36781) - http://www.bohemiancoding.com/sketch -->
    <title>QQ_F</title>
    <desc>Created with Sketch.</desc>
    <defs></defs>
    <g id="ESODA-HD" stroke="none" stroke-width="1" fill="none" fill-rule="evenodd">
        <g transform="translate(-1095.000000, -2870.000000)" id="buttom" fill="#63B7E6">
            <g transform="translate(0.000000, 2760.000000)">
                <path d="M1111,142 C1102.16344,142 1095,134.836556 1095,126 C1095,117.163444 1102.16344,110 1111,110 C1119.83656,110 1127,117.163444 1127,126 C1127,134.836556 1119.83656,142 1111,142 Z M1103.4222,122.896708 C1103.31391,123.186335 1103.47268,123.369695 1103.4222,124.47238 C1103.40862,124.768974 1102.14479,126.111505 1101.64322,127.505881 C1101.14565,128.889146 1101.07718,130.334182 1101.84538,130.902115 C1102.61357,131.470049 1103.32874,129.011665 1103.4222,129.369374 C1103.46297,129.525435 1103.51382,129.687792 1103.57503,129.854594 C1103.82087,130.524581 1104.23379,131.266272 1104.83216,131.959661 C1104.95371,132.100517 1104.09174,132.359539 1103.57503,133.249028 C1103.05832,134.138518 1103.72307,135.755772 1106.29282,135.755771 C1109.60819,135.755771 1110.34924,134.576199 1110.41682,134.581367 C1110.66368,134.600247 1110.68074,134.581367 1110.94243,134.581368 C1111.26258,134.581368 1111.13012,134.607413 1111.4276,134.581367 C1111.58827,134.567301 1113.19956,135.993084 1115.43031,135.755771 C1119.23085,135.35146 1118.64968,134.062506 1118.35136,133.249028 C1118.04,132.4 1116.93904,132.002161 1116.98764,131.947807 C1117.89807,130.929605 1118.04233,130.304494 1118.35136,129.369374 C1118.4784,128.984963 1119.36028,131.484288 1120.03948,130.902115 C1120.3225,130.659528 1120.88854,129.648743 1120.3225,127.505881 C1119.75646,125.36302 1118.66201,124.874196 1118.68579,124.47238 C1118.73529,123.636076 1118.70655,123.048797 1118.66482,122.896708 C1118.46266,122.16 1118.04,122.322668 1118.04,122.16 C1118.04,117.918453 1114.88808,114.48 1111,114.48 C1107.11192,114.48 1103.96,117.918453 1103.96,122.16 C1103.96,122.496659 1103.66479,122.247911 1103.4222,122.896708 Z" id="QQ_F"></path>
            </g>
        </g>
    </g>
</svg>